<svg width="30" height="30" viewBox="0 0 30 30" fill="none" xmlns="http://www.w3.org/2000/svg">
<rect width="30" height="30" fill="#FF9D4D"/>
<path d="M8 8.7788C7.99991 8.46601 8.08235 8.15874 8.23899 7.888C8.39564 7.61727 8.62095 7.39266 8.89216 7.23685C9.16338 7.08105 9.47091 6.99956 9.7837 7.00062C10.0965 7.00168 10.4034 7.08525 10.6736 7.2429L21.3369 13.4629C21.606 13.6191 21.8294 13.8431 21.9848 14.1127C22.1402 14.3822 22.2221 14.6878 22.2224 14.999C22.2227 15.3101 22.1413 15.6158 21.9863 15.8856C21.8314 16.1555 21.6084 16.3799 21.3396 16.5365L10.6736 22.7583C10.4034 22.916 10.0965 22.9995 9.7837 23.0006C9.47091 23.0017 9.16338 22.9202 8.89216 22.7644C8.62095 22.6086 8.39564 22.384 8.23899 22.1132C8.08235 21.8425 7.99991 21.5352 8 21.2224V8.7788Z" fill="white"/>
</svg>
